<svg viewBox="0 0 24 24" height="24" width="24" xml:space="preserve" xmlns="http://www.w3.org/2000/svg">
  <!--
  SPDX-FileCopyrightText: Nextcloud GmbH - Folder icon
  SPDX-FileCopyrightText: Jason Long - Git Logo (https://git-scm.com/downloads/logos)
  SPDX-FileCopyrightText: 2025 Markus Katharina Brechtel <markus.katharina.brechtel@thengo.net>
  SPDX-License-Identifier: CC-BY-3.0
  -->
  <!-- Folder shape -->
  <path fill="#fff" d="M20 18H4V8h16m0-2h-8l-2-2H4c-1.11 0-2 .89-2 2v12a2 2 0 0 0 2 2h16a2 2 0 0 0 2-2V8c0-1.11-.9-2-2-2Z"/>

  <!-- Git logomark (scaled and positioned) -->
  <g transform="translate(7.5 8.2) scale(0.105)">
    <path style="stroke:none;fill-rule:nonzero;fill:#fff;fill-opacity:1" d="M90.156 41.965 50.036 1.848a5.918 5.918 0 0 0-8.372 0l-8.328 8.332 10.566 10.566a7.03 7.03 0 0 1 7.23 1.684 7.034 7.034 0 0 1 1.669 7.277l10.187 10.184a7.028 7.028 0 0 1 7.278 1.672 7.04 7.04 0 0 1 0 9.957 7.05 7.05 0 0 1-9.965 0 7.044 7.044 0 0 1-1.528-7.66l-9.5-9.497V59.36a7.04 7.04 0 0 1 1.86 11.29 7.04 7.04 0 0 1-9.957 0 7.04 7.04 0 0 1 0-9.958 7.06 7.06 0 0 1 2.304-1.539V33.926a7.049 7.049 0 0 1-3.82-9.234L29.242 14.272 1.73 41.777a5.925 5.925 0 0 0 0 8.371L41.852 90.27a5.925 5.925 0 0 0 8.37 0l39.934-39.934a5.925 5.925 0 0 0 0-8.371"/>
  </g>
</svg>
